<svg width="100" height="150" viewBox="0 0 100 150" fill="none" xmlns="http://www.w3.org/2000/svg">
<circle cx="50" cy="80" r="50" fill="#F1F0E6"/>
<path d="M48.85 114.8C44.95 114.8 40.9 114.2 36.7 113C32.5 111.7 28.55 109.75 24.85 107.15C21.25 104.55 18.3 101.2 16 97.1C13.8 93 12.7 88.1 12.7 82.4C12.7 78.4 13.35 74.2 14.65 69.8C16.05 65.4 18.25 61.3 21.25 57.5C24.25 53.6 28.25 50.45 33.25 48.05C38.25 45.65 44.35 44.45 51.55 44.45C57.45 44.45 63.1 45.7 68.5 48.2C74 50.6 78.5 54.2 82 59C85.6 63.8 87.4 69.75 87.4 76.85C87.4 79.35 87.05 82.3 86.35 85.7C85.65 89 84.45 92.35 82.75 95.75C81.05 99.15 78.75 102.3 75.85 105.2C72.95 108 69.25 110.3 64.75 112.1C60.35 113.9 55.05 114.8 48.85 114.8ZM49.45 97.55C53.75 97.55 57.1 96.45 59.5 94.25C61.9 92.05 63.6 89.4 64.6 86.3C65.6 83.2 66.1 80.35 66.1 77.75C66.1 74.25 65.5 71.45 64.3 69.35C63.2 67.15 61.8 65.5 60.1 64.4C58.4 63.3 56.7 62.55 55 62.15C53.3 61.75 51.9 61.55 50.8 61.55C46.7 61.55 43.4 62.65 40.9 64.85C38.4 66.95 36.6 69.55 35.5 72.65C34.4 75.75 33.85 78.65 33.85 81.35C33.85 85.85 34.75 89.25 36.55 91.55C38.45 93.85 40.6 95.45 43 96.35C45.5 97.15 47.65 97.55 49.45 97.55Z" fill="#D6E0BC"/>
<path d="M46.97 92.04L48.56 78.78L50.21 77.61L51.65 65.88H54.17L52.61 78.72L50.96 79.89L49.49 92.04H46.97ZM56.93 73.65C56.15 73.13 55.34 72.7 54.5 72.36C53.68 72 52.89 71.8 52.13 71.76C51.65 71.74 51.22 71.77 50.84 71.85C50.46 71.91 50.12 72.03 49.82 72.21C49.54 72.37 49.31 72.59 49.13 72.87C48.97 73.15 48.87 73.48 48.83 73.86C48.77 74.38 48.91 74.86 49.25 75.3C49.61 75.72 50.09 76.11 50.69 76.47C51.31 76.83 51.96 77.16 52.64 77.46C53.46 77.82 54.24 78.27 54.98 78.81C55.72 79.35 56.3 80.06 56.72 80.94C57.14 81.8 57.26 82.93 57.08 84.33C56.98 85.17 56.72 85.96 56.3 86.7C55.88 87.44 55.31 88.09 54.59 88.65C53.89 89.19 53.05 89.6 52.07 89.88C51.09 90.16 49.98 90.26 48.74 90.18C47.9 90.12 47.06 89.98 46.22 89.76C45.38 89.54 44.56 89.24 43.76 88.86C42.96 88.46 42.2 87.96 41.48 87.36L43.82 84.09C44.28 84.49 44.8 84.86 45.38 85.2C45.96 85.52 46.55 85.78 47.15 85.98C47.75 86.18 48.31 86.3 48.83 86.34C49.35 86.36 49.88 86.32 50.42 86.22C50.96 86.1 51.43 85.87 51.83 85.53C52.23 85.19 52.47 84.7 52.55 84.06C52.61 83.62 52.51 83.21 52.25 82.83C51.99 82.45 51.64 82.1 51.2 81.78C50.76 81.46 50.26 81.17 49.7 80.91C49.06 80.61 48.4 80.27 47.72 79.89C47.04 79.51 46.41 79.06 45.83 78.54C45.27 78.02 44.84 77.38 44.54 76.62C44.24 75.86 44.16 74.96 44.3 73.92C44.46 72.64 44.88 71.55 45.56 70.65C46.24 69.73 47.13 69.04 48.23 68.58C49.33 68.1 50.57 67.87 51.95 67.89C53.13 67.95 54.14 68.11 54.98 68.37C55.84 68.61 56.59 68.91 57.23 69.27C57.87 69.63 58.46 70.02 59 70.44L56.93 73.65Z" fill="#D6E0BC"/>
</svg>
